<svg width="64" height="64" viewBox="0 0 64 64" fill="none" xmlns="http://www.w3.org/2000/svg">
<path fill-rule="evenodd" clip-rule="evenodd" d="M53.0719 9.15572C52.3359 9.35288 52.0593 9.46725 50.8111 10.0904C49.1685 10.9105 48.7948 11.0418 47.3812 11.2962C47.0039 11.364 46.5476 11.4652 46.3671 11.521C46.081 11.6094 45.5697 11.6268 42.3705 11.657L38.7019 11.6918L38.4254 11.8311C36.4359 12.8331 36.2858 17.076 38.1794 18.7845C39.0708 19.5887 39.3319 19.6443 42.4301 19.6891C45.0487 19.727 45.1313 19.7354 45.3971 19.9908C46.2184 20.7798 45.9344 21.3537 43.5107 23.8026L41.6248 25.7082L40.5213 26.4612C38.7028 27.702 38.3202 27.9365 37.1437 28.5315C34.7004 29.7671 31.5486 30.8046 29.6986 30.982C29.3593 31.0145 28.8572 31.1033 28.5828 31.1792C27.8235 31.3894 22.9285 31.3932 22.1785 31.1843C21.9161 31.1112 21.5134 31.0334 21.2838 31.0116C19.7394 30.8648 16.7671 30.044 15.2292 29.3397C15.0159 29.242 14.6307 29.0829 14.3732 28.986C13.7823 28.7637 12.357 28.0436 11.837 27.7047C8.22081 25.3476 6.11632 25.8918 5.22304 29.4151L5.00108 30.2907L5 31.6192C4.99869 33.3446 5.3124 34.8002 6.14531 36.9332C6.94982 38.9936 9.33229 41.9697 11.2922 43.3627C12.6777 44.3474 12.7273 44.4285 12.6046 45.5067C12.2841 48.3241 14.2575 51.6745 17.5854 53.9632C19.3718 55.1917 23.2451 56.7044 24.6149 56.7086C24.8066 56.7092 25.2361 56.7708 25.5693 56.8455C26.4218 57.0367 31.8956 57.0564 32.6473 56.871C32.8934 56.8104 33.39 56.7372 33.7509 56.7086C36.5441 56.4868 41.6514 54.5744 44.5478 52.6659C45.0399 52.3417 45.6573 51.9438 45.9197 51.7818C46.1822 51.6198 46.5983 51.3233 46.8443 51.1231C47.0904 50.9229 47.5199 50.5844 47.7988 50.3708C52.5125 46.7612 56.4845 40.0798 57.67 33.7663C57.7483 33.3493 57.8561 32.8043 57.9096 32.5552C57.9923 32.1706 58.0034 31.7786 57.9834 29.9586L57.9597 27.8149L57.6871 26.7883C56.9589 24.0457 55.7213 21.7383 53.8979 19.7236C52.8588 18.5755 52.9591 18.0858 54.3604 17.4633C57.4516 16.0902 58.6188 14.027 57.6887 11.5799C56.9138 9.54117 55.1299 8.60446 53.0719 9.15572ZM54.6543 11.8405C55.1861 12.1151 55.4634 12.9352 55.2223 13.5204C54.9298 14.2303 53.5633 15.0304 51.5866 15.6491C50.4323 16.0104 49.9732 16.7675 50.233 17.8813C50.2989 18.1636 50.3836 18.612 50.4213 18.8777C50.5744 19.9573 50.8593 20.5282 51.52 21.0785C53.1285 22.4185 54.4364 24.6835 55.2008 27.4525C55.3629 28.0399 55.4431 31.5144 55.3167 32.4757C54.9703 35.111 53.5146 39.1603 52.101 41.4206C51.9414 41.676 51.696 42.0886 51.5558 42.3377C50.73 43.8046 47.7691 47.0952 46.1583 48.3363C45.8303 48.5891 45.3715 48.955 45.1389 49.1495C44.9063 49.344 44.5036 49.6341 44.2441 49.7942C43.9846 49.9543 43.571 50.2149 43.3249 50.3734C42.7066 50.7716 41.5319 51.4562 41.0175 51.7182C40.5753 51.9435 40.5263 51.9644 39.2575 52.4699C38.0682 52.9436 36.0867 53.5696 35.3953 53.6898C35.0487 53.7502 34.6039 53.841 34.407 53.8916C34.2102 53.9423 33.8881 54.0021 33.6912 54.0246C33.4944 54.0471 33.0049 54.1305 32.6036 54.2101C31.8964 54.3501 31.786 54.3546 29.0408 54.3546H26.2077L25.1774 54.1469C22.2745 53.5617 20.892 53.0467 19.2089 51.9236C15.4872 49.4401 15.9074 47.6753 19.9714 48.7202C21.116 49.0145 22.2135 49.2352 23.4909 49.4279C23.819 49.4774 24.3219 49.5614 24.6085 49.6144C25.3856 49.7584 31.0224 49.7184 31.514 49.5655C31.6944 49.5094 32.0971 49.4197 32.4087 49.3663C39.9137 48.0793 46.7256 42.0134 49.7273 33.9441C49.8447 33.6285 50.0319 33.153 50.1432 32.8873C50.4807 32.0821 51.2549 29.63 51.4081 28.881C51.4873 28.4939 51.5917 27.987 51.6401 27.7545C51.9456 26.2852 51.7571 25.5239 51.0692 25.4475C50.5357 25.3884 50.2 25.8112 50.0332 26.7525C49.4756 29.8973 47.8268 34.3945 46.3229 36.8728C46.1616 37.1385 45.8562 37.6412 45.6441 37.9899C45.1542 38.7956 44.1352 40.1873 43.6579 40.7027C43.4557 40.9211 43.0923 41.3543 42.8503 41.6653C42.574 42.0203 42.2086 42.3946 41.8684 42.6709C41.5704 42.913 41.085 43.3331 40.7897 43.6045C38.6584 45.5633 34.9675 47.2197 31.6929 47.687C31.3484 47.7362 30.8073 47.8299 30.4905 47.8953C29.6294 48.0728 26.095 48.0711 25.2506 47.8927C24.9389 47.8269 24.4003 47.7472 24.0536 47.7157C21.9811 47.5273 18.7818 46.6603 18.3307 46.165C17.6298 45.3951 17.8473 44.8779 18.9722 44.6395C19.7392 44.4771 22.0685 43.8691 22.4797 43.724C22.675 43.6552 23.1993 43.506 23.6448 43.3927C24.9549 43.0593 26.7466 42.4197 29.6946 41.2331C30.8379 40.7729 33.914 39.2542 34.55 38.8359C34.7598 38.698 35.1758 38.4463 35.4746 38.2766C36.1303 37.9042 38.0547 36.6151 38.447 36.2856C38.602 36.1553 38.9822 35.8538 39.2919 35.6154C41.1169 34.2106 42.4788 32.948 43.1794 32.0117C43.3409 31.7958 43.7242 31.3339 44.0312 30.9851C45.1164 29.7526 46.0988 28.1839 47.0941 26.0939C48.2866 23.5898 48.6781 21.6084 48.2929 20.025C48.2202 19.7261 48.1327 19.2307 48.0986 18.924C47.889 17.0436 47.7337 16.9755 43.6516 16.9755C39.995 16.9755 39.9813 16.973 39.5832 16.2086C39.2674 15.6024 39.2551 15.0915 39.5478 14.7394C39.8796 14.3401 39.7835 14.3521 42.9372 14.3155C45.3247 14.2878 45.8649 14.2657 46.1882 14.1825C46.4014 14.1277 46.8164 14.0529 47.1104 14.0163C48.5759 13.8338 50.0449 13.3503 51.7852 12.4777C53.5282 11.6038 53.9951 11.5001 54.6543 11.8405ZM39.528 30.6281C39.9614 31.2545 37.3089 33.6011 34.1386 35.3959C33.8269 35.5724 33.3587 35.8513 33.098 36.0157C32.1562 36.6099 29.9658 37.6343 28.8595 37.998C27.944 38.299 26.8655 38.3727 25.9366 38.1978C25.6741 38.1483 25.1507 38.0666 24.7734 38.0161C23.833 37.8902 21.6066 37.3184 20.8079 36.9975C20.4463 36.8523 19.9625 36.6591 19.7328 36.5683C16.5902 35.3258 10.6857 31.1441 11.6406 30.8372C11.7701 30.7956 12.4611 31.0016 12.8431 31.1956C13.761 31.6618 16.0373 32.4651 17.5538 32.858C20.2167 33.5478 20.6838 33.6471 21.5224 33.7015C21.9489 33.7292 22.4992 33.8018 22.7452 33.863C23.4131 34.0291 27.3819 34.0297 28.0542 33.8639C28.3003 33.8032 28.7968 33.7308 29.1577 33.703C29.5186 33.6752 30.0286 33.5982 30.2911 33.5318C30.5536 33.4655 30.9696 33.3792 31.2157 33.34C32.1171 33.1965 33.4712 32.8164 34.9912 32.2802C36.1674 31.8654 36.3485 31.7898 37.4194 31.2665C39.0156 30.4866 39.3583 30.3828 39.528 30.6281ZM9.27813 31.9276C9.60401 32.0968 9.97999 32.3705 10.636 32.9162C12.0388 34.0831 14.1827 35.6188 15.3187 36.2705C15.4827 36.3646 15.9292 36.627 16.3109 36.8536C17.7908 37.7321 19.2714 38.3663 21.5522 39.0987C23.8986 39.8521 23.156 40.418 18.4503 41.4629C17.7778 41.6122 16.798 41.8498 16.2731 41.9908C14.7257 42.4065 14.3841 42.3589 13.2413 41.5683C10.3892 39.5951 8.14756 36.1919 7.71151 33.1729C7.53989 31.9848 8.27014 31.4044 9.27813 31.9276Z" fill="#322B01"/>
</svg>
