<svg width="60" height="60" viewBox="0 0 60 60" fill="none" xmlns="http://www.w3.org/2000/svg">
<path d="M58.0747 36.554C24.1674 35.183 7.20562 11.0281 7.20562 11.0281L7.19824 11.0304C8.32594 14.2551 16.9809 36.7359 42.7538 48.3784C46.7448 47.8535 54.892 45.1869 59.4995 39.8888C60.6078 38.6146 59.762 36.6222 58.0747 36.554Z" fill="#E2C01A"/>
<path d="M44.9527 42.1005C37.4941 42.1005 31.6785 40.2303 28.1132 38.6614C24.2242 36.9501 22.1179 35.2426 22.0301 35.1708C21.643 34.8539 21.586 34.283 21.903 33.8958C22.2198 33.5088 22.7902 33.4518 23.1775 33.7683C23.2164 33.7998 25.2427 35.4274 28.9109 37.0326C32.3053 38.5179 37.8436 40.2884 44.9526 40.2884C45.453 40.2884 45.8586 40.6941 45.8586 41.1944C45.8587 41.6949 45.4531 42.1005 44.9527 42.1005Z" fill="#D6B013"/>
<path d="M7.10223 10.6409C7.10223 10.6409 15.9198 38.8086 47.8061 50.4205C49.3929 50.9984 49.593 53.1537 48.1499 54.0308C45.2638 55.7851 40.1011 57.752 31.7888 57.2901C17.3381 56.4872 -7.37708 35.0979 2.11333 10.6409H7.10223Z" fill="#F2D422"/>
<path d="M33.054 51.5549C32.9711 51.5549 32.8868 51.5435 32.803 51.5193C27.0416 49.8613 21.9137 46.938 17.5616 42.8306C14.0904 39.5545 11.1064 35.5245 8.69208 30.8527C4.5917 22.9178 3.56783 15.9636 3.52635 15.6714C3.45592 15.1761 3.80033 14.7173 4.29568 14.6467C4.79092 14.5768 5.24959 14.9206 5.32025 15.4157C5.33009 15.4847 6.35455 22.404 10.3286 30.0724C15.6204 40.2836 23.3506 46.9135 33.3041 49.7779C33.7849 49.9163 34.0627 50.4183 33.9243 50.8992C33.81 51.2964 33.4477 51.5549 33.054 51.5549Z" fill="#E2C01A"/>
<path d="M34.2053 57.29C19.7546 56.4872 -4.96069 35.098 4.52973 10.6409H2.11332C-7.37709 35.0981 17.3382 56.4873 31.7888 57.29C33.073 57.3614 34.2817 57.3744 35.4189 57.3396C35.0213 57.3284 34.6183 57.313 34.2053 57.29Z" fill="#E2C01A"/>
<path d="M47.8063 50.4206C46.9317 50.102 46.0755 49.7704 45.2354 49.428C44.4212 51.3317 44.4331 53.521 45.3105 55.44C46.4322 54.9891 47.3743 54.5025 48.1501 54.031C49.5932 53.1537 49.3931 50.9985 47.8063 50.4206Z" fill="#585A60"/>
<path d="M12.3462 16.8417C8.91972 13.4686 7.20562 11.0281 7.20562 11.0281L7.19824 11.0304C8.32594 14.2551 16.9809 36.7359 42.7537 48.3784C43.4159 48.2913 44.1944 48.1438 45.0503 47.9366C26.29 39.42 16.6294 25.1626 12.3462 16.8417Z" fill="#D6B013"/>
<path d="M5.03793 2.64136H4.17777C3.04235 2.64136 2.1134 3.5703 2.1134 4.70573V10.6408H7.1023V4.70573C7.1023 3.5703 6.17336 2.64136 5.03793 2.64136Z" fill="#E2C01A"/>
<path d="M5.81569 2.79558C5.57522 2.69679 5.31272 2.64136 5.03768 2.64136H4.17753C3.0421 2.64136 2.11316 3.5703 2.11316 4.70573V10.6408H4.52921V4.70585C4.52933 3.84534 5.06323 3.10448 5.81569 2.79558Z" fill="#D6B013"/>
<path d="M9.12982 15.5437C7.69545 12.5354 7.10224 10.6409 7.10224 10.6409H2.11335C1.47304 12.291 0.989755 13.9269 0.647217 15.5437H9.12982Z" fill="#D6B013"/>
<path d="M3.06361 15.5438C3.40615 13.9269 3.88943 12.291 4.52974 10.6409H2.11334C2.11088 10.6472 2.10853 10.6536 2.10607 10.66C2.03131 10.8531 1.95865 11.0461 1.8881 11.2389C1.86748 11.2952 1.84814 11.3514 1.82787 11.4076C1.77584 11.5524 1.72404 11.697 1.67435 11.8415C1.65443 11.8993 1.63568 11.9571 1.61611 12.0149C1.56724 12.1595 1.51885 12.3041 1.47244 12.4485C1.4558 12.5003 1.43986 12.552 1.42346 12.6036C1.37529 12.7559 1.32795 12.908 1.28236 13.06C1.26947 13.1029 1.25717 13.1457 1.24439 13.1886C1.19646 13.3511 1.14959 13.5135 1.10459 13.6756C1.09545 13.7084 1.08654 13.7412 1.07752 13.774C1.02982 13.948 0.983535 14.1218 0.939121 14.2954C0.933496 14.3172 0.927988 14.3391 0.92248 14.3609C0.875371 14.5467 0.830019 14.7323 0.78666 14.9177C0.784082 14.9289 0.781386 14.94 0.778808 14.9511C0.732988 15.1484 0.689043 15.3454 0.647324 15.542C0.647207 15.5426 0.64709 15.543 0.646973 15.5436L3.06361 15.5438Z" fill="#CCA70E"/>
<path d="M58.0745 36.5539C57.1659 36.5173 56.2718 36.4609 55.3875 36.3923C55.2639 38.5295 56.0461 40.4979 57.4095 41.9392C58.2556 41.2231 58.9437 40.5279 59.4996 39.8888C60.6077 38.6146 59.7619 36.6221 58.0745 36.5539Z" fill="#585A60"/>
<path d="M58.0747 36.554C24.1674 35.183 7.20562 11.0281 7.20562 11.0281L7.19824 11.0304C8.32594 14.2551 16.9809 36.7359 42.7538 48.3784C46.7448 47.8535 54.892 45.1869 59.4995 39.8888C60.6078 38.6146 59.762 36.6222 58.0747 36.554Z" fill="#E2C01A"/>
<path d="M44.9527 42.1005C37.4941 42.1005 31.6785 40.2303 28.1132 38.6614C24.2242 36.9501 22.1179 35.2426 22.0301 35.1708C21.643 34.8539 21.586 34.283 21.903 33.8958C22.2198 33.5088 22.7902 33.4518 23.1775 33.7683C23.2164 33.7998 25.2427 35.4274 28.9109 37.0326C32.3053 38.5179 37.8436 40.2884 44.9526 40.2884C45.453 40.2884 45.8586 40.6941 45.8586 41.1944C45.8587 41.6949 45.4531 42.1005 44.9527 42.1005Z" fill="#D6B013"/>
<path d="M7.10223 10.6409C7.10223 10.6409 15.9198 38.8086 47.8061 50.4205C49.3929 50.9984 49.593 53.1537 48.1499 54.0308C45.2638 55.7851 40.1011 57.752 31.7888 57.2901C17.3381 56.4872 -7.37708 35.0979 2.11333 10.6409H7.10223Z" fill="#F2D422"/>
<path d="M33.054 51.5549C32.9711 51.5549 32.8868 51.5435 32.803 51.5193C27.0416 49.8613 21.9137 46.938 17.5616 42.8306C14.0904 39.5545 11.1064 35.5245 8.69208 30.8527C4.5917 22.9178 3.56783 15.9636 3.52635 15.6714C3.45592 15.1761 3.80033 14.7173 4.29568 14.6467C4.79092 14.5768 5.24959 14.9206 5.32025 15.4157C5.33009 15.4847 6.35455 22.404 10.3286 30.0724C15.6204 40.2836 23.3506 46.9135 33.3041 49.7779C33.7849 49.9163 34.0627 50.4183 33.9243 50.8992C33.81 51.2964 33.4477 51.5549 33.054 51.5549Z" fill="#E2C01A"/>
<path d="M34.2053 57.29C19.7546 56.4872 -4.96069 35.098 4.52973 10.6409H2.11332C-7.37709 35.0981 17.3382 56.4873 31.7888 57.29C33.073 57.3614 34.2817 57.3744 35.4189 57.3396C35.0213 57.3284 34.6183 57.313 34.2053 57.29Z" fill="#E2C01A"/>
<path d="M47.8063 50.4206C46.9317 50.102 46.0755 49.7704 45.2354 49.428C44.4212 51.3317 44.4331 53.521 45.3105 55.44C46.4322 54.9891 47.3743 54.5025 48.1501 54.031C49.5932 53.1537 49.3931 50.9985 47.8063 50.4206Z" fill="#585A60"/>
<path d="M12.3462 16.8417C8.91972 13.4686 7.20562 11.0281 7.20562 11.0281L7.19824 11.0304C8.32594 14.2551 16.9809 36.7359 42.7537 48.3784C43.4159 48.2913 44.1944 48.1438 45.0503 47.9366C26.29 39.42 16.6294 25.1626 12.3462 16.8417Z" fill="#D6B013"/>
<path d="M5.03793 2.64136H4.17777C3.04235 2.64136 2.1134 3.5703 2.1134 4.70573V10.6408H7.1023V4.70573C7.1023 3.5703 6.17336 2.64136 5.03793 2.64136Z" fill="#E2C01A"/>
<path d="M5.81569 2.79558C5.57522 2.69679 5.31272 2.64136 5.03768 2.64136H4.17753C3.0421 2.64136 2.11316 3.5703 2.11316 4.70573V10.6408H4.52921V4.70585C4.52933 3.84534 5.06323 3.10448 5.81569 2.79558Z" fill="#D6B013"/>
<path d="M9.12982 15.5437C7.69545 12.5354 7.10224 10.6409 7.10224 10.6409H2.11335C1.47304 12.291 0.989755 13.9269 0.647217 15.5437H9.12982Z" fill="#D6B013"/>
<path d="M3.06361 15.5438C3.40615 13.9269 3.88943 12.291 4.52974 10.6409H2.11334C2.11088 10.6472 2.10853 10.6536 2.10607 10.66C2.03131 10.8531 1.95865 11.0461 1.8881 11.2389C1.86748 11.2952 1.84814 11.3514 1.82787 11.4076C1.77584 11.5524 1.72404 11.697 1.67435 11.8415C1.65443 11.8993 1.63568 11.9571 1.61611 12.0149C1.56724 12.1595 1.51885 12.3041 1.47244 12.4485C1.4558 12.5003 1.43986 12.552 1.42346 12.6036C1.37529 12.7559 1.32795 12.908 1.28236 13.06C1.26947 13.1029 1.25717 13.1457 1.24439 13.1886C1.19646 13.3511 1.14959 13.5135 1.10459 13.6756C1.09545 13.7084 1.08654 13.7412 1.07752 13.774C1.02982 13.948 0.983535 14.1218 0.939121 14.2954C0.933496 14.3172 0.927988 14.3391 0.92248 14.3609C0.875371 14.5467 0.830019 14.7323 0.78666 14.9177C0.784082 14.9289 0.781386 14.94 0.778808 14.9511C0.732988 15.1484 0.689043 15.3454 0.647324 15.542C0.647207 15.5426 0.64709 15.543 0.646973 15.5436L3.06361 15.5438Z" fill="#CCA70E"/>
<path d="M58.0745 36.5539C57.1659 36.5173 56.2718 36.4609 55.3875 36.3923C55.2639 38.5295 56.0461 40.4979 57.4095 41.9392C58.2556 41.2231 58.9437 40.5279 59.4996 39.8888C60.6077 38.6146 59.7619 36.6221 58.0745 36.5539Z" fill="#585A60"/>
</svg>
